<svg viewBox="0 0 100 100" xmlns="http://www.w3.org/2000/svg" fill="none" stroke="#1f2028" stroke-width="1.5">
  <path d="M 50 52 C 38 44 36 18 50 8 C 64 18 62 44 50 52 Z" fill="#1f2028" fill-opacity="0.07"/>
  <path d="M 50 52 C 38 44 36 18 50 8 C 64 18 62 44 50 52 Z" fill="#1f2028" fill-opacity="0.07" transform="rotate(45 50 50)"/>
  <path d="M 50 52 C 38 44 36 18 50 8 C 64 18 62 44 50 52 Z" fill="#1f2028" fill-opacity="0.07" transform="rotate(90 50 50)"/>
  <path d="M 50 52 C 38 44 36 18 50 8 C 64 18 62 44 50 52 Z" fill="#1f2028" fill-opacity="0.07" transform="rotate(135 50 50)"/>
  <path d="M 50 52 C 38 44 36 18 50 8 C 64 18 62 44 50 52 Z" fill="#1f2028" fill-opacity="0.07" transform="rotate(180 50 50)"/>
  <path d="M 50 52 C 38 44 36 18 50 8 C 64 18 62 44 50 52 Z" fill="#1f2028" fill-opacity="0.07" transform="rotate(225 50 50)"/>
  <path d="M 50 52 C 38 44 36 18 50 8 C 64 18 62 44 50 52 Z" fill="#1f2028" fill-opacity="0.07" transform="rotate(270 50 50)"/>
  <path d="M 50 52 C 38 44 36 18 50 8 C 64 18 62 44 50 52 Z" fill="#1f2028" fill-opacity="0.07" transform="rotate(315 50 50)"/>
  <path d="M 50 52 C 43 46 42 30 50 24 C 58 30 57 46 50 52 Z" fill="#1f2028" fill-opacity="0.07" transform="rotate(22.5 50 50)"/>
  <path d="M 50 52 C 43 46 42 30 50 24 C 58 30 57 46 50 52 Z" fill="#1f2028" fill-opacity="0.07" transform="rotate(67.5 50 50)"/>
  <path d="M 50 52 C 43 46 42 30 50 24 C 58 30 57 46 50 52 Z" fill="#1f2028" fill-opacity="0.07" transform="rotate(112.5 50 50)"/>
  <path d="M 50 52 C 43 46 42 30 50 24 C 58 30 57 46 50 52 Z" fill="#1f2028" fill-opacity="0.07" transform="rotate(157.5 50 50)"/>
  <path d="M 50 52 C 43 46 42 30 50 24 C 58 30 57 46 50 52 Z" fill="#1f2028" fill-opacity="0.07" transform="rotate(202.5 50 50)"/>
  <path d="M 50 52 C 43 46 42 30 50 24 C 58 30 57 46 50 52 Z" fill="#1f2028" fill-opacity="0.07" transform="rotate(247.5 50 50)"/>
  <path d="M 50 52 C 43 46 42 30 50 24 C 58 30 57 46 50 52 Z" fill="#1f2028" fill-opacity="0.07" transform="rotate(292.5 50 50)"/>
  <path d="M 50 52 C 43 46 42 30 50 24 C 58 30 57 46 50 52 Z" fill="#1f2028" fill-opacity="0.07" transform="rotate(337.5 50 50)"/>
  <circle cx="50" cy="50" r="9" fill="#1f2028" fill-opacity="0.12"/>
  <circle cx="50" cy="50" r="9"/>
</svg>
